<?xml version="1.0" encoding="utf-8"?>
<!-- Generator: Adobe Illustrator 24.0.1, SVG Export Plug-In . SVG Version: 6.00 Build 0)  -->
<svg version="1.1" xmlns="http://www.w3.org/2000/svg" xmlns:xlink="http://www.w3.org/1999/xlink" x="0px" y="0px" width="64px"
	 height="64px" viewBox="0 0 64 64" style="enable-background:new 0 0 64 64;" xml:space="preserve">
<style type="text/css">
	.st0{fill:none;stroke:#000000;stroke-width:1.5;stroke-miterlimit:10;}
	.st1{fill:#FFFFFF;stroke:#000000;stroke-width:0.989177;stroke-miterlimit:10;}
	.st2{fill:none;stroke:#000000;stroke-width:0.989177;stroke-miterlimit:10;}
	.st3{fill:none;stroke:#000000;stroke-width:0.6279578;stroke-miterlimit:10;}
	.st4{display:none;}
	.st5{display:inline;}
</style>
<g id="Layer_1">
	<path d="M47.4510574,19.4946785c0.2308311-0.4360924,0.3505554-0.7439041,0.367672-0.7866459l3.6938934-10.1667528
		l-1.0517654,0.1453466c-0.6754837,0.0940447-1.4963684,0.2223253-2.3856163,0.3933487l1.2056198-3.3347797L48.2291451,5.890542
		c-2.2744522,0.3078637-4.0017052,0.7866988-5.3184891,1.3510199c-0.6498566-1.2740407-1.6673889-2.7532892-3.2064972-4.454915
		L38.9944382,2l-1.21418,3.3347802c-0.5729332-0.7097197-1.1201363-1.3339019-1.5819054-1.838414l-0.7182274-0.7866464
		l-3.4715652,9.5596371l-3.4886875-9.5596371L27.810154,3.4963663c-0.4617176,0.5045121-1.0089722,1.1286943-1.581852,1.838414
		L25.0140686,2l-0.7096672,0.7866466c-1.5476685,1.7016261-2.5651989,3.1808746-3.2064991,4.4634743
		c-1.3168354-0.5728798-3.0525932-1.0517149-5.3270998-1.3595786l-1.0517149-0.1453466l1.21418,3.3347797
		c-0.8892508-0.1710234-1.7015743-0.299304-2.3856163-0.3933487l-1.0602741-0.1453466l3.7024517,10.1667528
		c0.017067,0.0427418,0.1282291,0.3505535,0.367672,0.7866459h-2.1804085l12.6122303,26.4643173L23.8426323,62h15.8358498
		l-3.155201-16.0495605l12.6122322-26.455761H47.4510574z M17.3954506,18.263382l-2.9670563-8.1488094
		c0.7096672,0.1111631,1.3852034,0.2308846,2.0179443,0.367672c0.2479496,0.0513544,0.4959526,0.1026564,0.7353439,0.1539583
		c0.2565098,0.0598087,0.5045128,0.1196699,0.7524643,0.1795301c0.8123226,0.2052078,1.5562267,0.4275331,2.2402687,0.6669769
		c0.2394447,0.068368,0.4617176,0.1539059,0.6840439,0.2393913c0.2736263,0.1026039,0.5386963,0.2052078,0.7866974,0.316371
		c0.1111107,0.0427952,0.2222748,0.0940971,0.3248787,0.1453991c-0.0341854,0.0854855-0.0683689,0.1795301-0.1026039,0.2650681
		c-0.0940456,0.2393913-0.1795311,0.4873943-0.2565098,0.7267857c-0.0769272,0.2308846-0.1453476,0.4702759-0.2052078,0.7011604
		c-0.0427437,0.1453476-0.0769787,0.2907457-0.1026039,0.4360924c-0.0598602,0.2052078-0.0940456,0.4189749-0.1282806,0.6241817
		c-0.0341835,0.2137671-0.0683689,0.4275341-0.0854855,0.6413002c-0.1197224,1.3766451,0.0769253,2.7105455,0.7610207,3.9162188
		h-3.8050556C17.617775,18.8362617,17.4211273,18.3146839,17.3954506,18.263382z M20.5848312,8.4044399
		c-0.2393913,0.6498585-0.367672,1.2312975-0.4275341,1.7614346c-0.9234333-0.3078117-1.8554783-0.5643206-2.7361698-0.7695284
		l-0.7610226-2.0778055C18.3189373,7.6092339,19.5929775,7.9854655,20.5848312,8.4044399z M22.2265968,7.8059349
		c0.4959011-0.9577227,1.2312965-2.0692987,2.3171959-3.3518982l0.7524624,2.077805
		c-0.5472546,0.7268381-1.0944576,1.5134845-1.6075287,2.3429265c-0.1111622,0.1795301-0.2223263,0.367672-0.3334351,0.5557613
		c-0.1197224,0.1881418-0.2308865,0.3847904-0.3420486,0.581439c-0.1795826,0.3420477-0.3591137,0.6840429-0.5386963,1.0346489
		c-0.3505535-0.1539049-0.7011604-0.2992516-1.0688324-0.4446507c0.0085583-0.4617176,0.1026039-1.0004129,0.3249302-1.6245956
		c0.0598602-0.1881409,0.1367874-0.3847895,0.2308846-0.5985565C22.0384541,8.1992321,22.1324997,8.0025835,22.2265968,7.8059349z
		 M28.0495968,5.1551976l2.9670563,8.1488075c0.0085583,0.0256252,0.3420467,1.0004139,0.3420467,2.3001308v0.0256252
		c0,1.1714373-0.2821865,2.6165018-1.3339005,3.8649168h-1.6588326h-0.6498585h-0.6669769h-3.6596565
		c-0.58144-0.7610207-1.1714382-2.0436211-0.9833469-3.993145c0.0256767-0.2223263,0.0598602-0.4532108,0.102602-0.7011614
		c0.0085602-0.0769787,0.0256786-0.1453991,0.0427952-0.2308846c0.0341854-0.1710234,0.0769272-0.3420477,0.1282291-0.5301371
		c0.0342369-0.0171175,0.0684204-0.0341835,0.1026039-0.0598612c-0.0256252-0.0085583-0.051302-0.0171175-0.0769272-0.0256243
		c0.051302-0.196701,0.1111641-0.4104681,0.1880894-0.6242342c0.0598621-0.1880894,0.1282825-0.3847904,0.2052078-0.5899982
		c0.0769787-0.1880894,0.1539059-0.3847904,0.2394447-0.5899973c0.0854855-0.1795311,0.1710224-0.3676729,0.2565098-0.5557623
		c0.051302-0.1026039,0.1026039-0.2052078,0.1539059-0.31637c0.1282806-0.248003,0.2650681-0.4959536,0.401907-0.7524633
		c0.1196709-0.2052078,0.2393913-0.4189739,0.367672-0.632741c0.3762321-0.615675,0.8037663-1.2655334,1.2996655-1.9410172
		c0.1453991-0.2052078,0.299305-0.4104152,0.4532108-0.6241817c0.1539059-0.196701,0.3078117-0.3933496,0.4702759-0.598557
		C27.1432285,6.2240305,27.5792694,5.6938934,28.0495968,5.1551976z M32.9918556,13.3125648l2.9671059-8.1573677
		c0.4788361,0.547255,0.9149284,1.0688329,1.3082237,1.5819039c0.1624641,0.1966486,0.3163719,0.3932972,0.4617691,0.5899982
		c0.162468,0.2137666,0.3163719,0.4189739,0.4617195,0.6241817c0.4959526,0.6754837,0.9149246,1.3167839,1.2911568,1.9324589
		c0.128231,0.2223253,0.2479515,0.4275331,0.367672,0.6412992c0.1453476,0.2565098,0.2821884,0.5044603,0.4018593,0.7524633
		v0.0085068c0.0598602,0.1026554,0.1111603,0.2137661,0.153904,0.3164225
		c0.0940971,0.1880894,0.1795845,0.367672,0.2565613,0.5472031c0.0854874,0.2052069,0.1709709,0.4019079,0.2393913,0.5985565
		c0.0769806,0.1966486,0.1539078,0.3933496,0.213768,0.581439c0.0684204,0.2052078,0.1282806,0.4189739,0.1881409,0.615675
		c0.0085602,0.0341835,0.017067,0.0598612,0.0256233,0.0940447c0.0427437,0.1880894,0.0855408,0.367672,0.1197243,0.5386963
		c0.0171165,0.0769262,0.0341835,0.1453466,0.0427437,0.2223253c0.0513,0.2393913,0.0769768,0.4702759,0.1026039,0.7011614
		c0.1881409,1.9495239-0.4018593,3.2321243-0.9832954,3.993145h-3.6511536h-0.6669769h-0.6498032h-1.6588326
		c-0.9747887-1.1458111-1.2997169-2.4540367-1.3424606-3.5656118v-0.0684204c-0.0085602-0.1624641-0.0085602-0.3249292,0-0.4788351
		v-0.034236C32.6754837,14.2103739,32.9662285,13.3809328,32.9918556,13.3125648z M41.7819633,7.8059349
		c0.0940437,0.1966486,0.1880875,0.384738,0.2650681,0.5643206c0.0940437,0.2137671,0.1710243,0.4189749,0.2308311,0.6071157
		c0.2223282,0.6241827,0.3164253,1.162878,0.3249321,1.6245956c-0.3676758,0.1453991-0.7267876,0.2907457-1.077343,0.4532099
		c-0.1710205-0.350606-0.350605-0.7011604-0.5386963-1.0432081C40.8755951,9.81532,40.764431,9.6186714,40.6532669,9.4219704
		c-0.1111603-0.1880894-0.2223244-0.367672-0.3334885-0.5472021c-0.5130157-0.829442-1.0688324-1.6160884-1.6075287-2.3429265
		l0.7524643-2.077805C40.550663,5.7366362,41.2860107,6.8482122,41.7819633,7.8059349z M47.3484535,7.3185406l-0.7610207,2.0778055
		c-0.8893051,0.2137661-1.8212967,0.4617167-2.7447815,0.7695284c-0.059864-0.5301371-0.1880913-1.1115761-0.427536-1.7614346
		C44.4070244,7.9854655,45.689621,7.6092339,47.3484535,7.3185406z M46.6130562,18.263382
		c-0.0085602,0.0171165-0.2137642,0.5472546-0.6583633,1.2312965h-3.8050575
		c0.6840439-1.2056732,0.8892517-2.5395737,0.7610207-3.9162188c-0.0171165-0.2137661-0.0513-0.4275331-0.085537-0.6413002
		c-0.0341835-0.2052069-0.0684204-0.4189739-0.1197205-0.6241817c-0.0341873-0.1453466-0.0683708-0.2907448-0.1111107-0.4360924
		c-0.059864-0.2308846-0.1282845-0.4702759-0.2052612-0.7011604c-0.0769272-0.2393913-0.1624641-0.4788351-0.2565079-0.7182264
		c-0.0341873-0.0940971-0.0684204-0.1881418-0.1026039-0.2736273c0.1111603-0.051302,0.2223244-0.1026039,0.3334885-0.1453991
		c0.2479477-0.1111631,0.5044594-0.2137671,0.7695274-0.3078117c0.2223244-0.0854855,0.4532089-0.1710234,0.6926003-0.2479506
		c0.6840973-0.2394438,1.4279976-0.4617691,2.2488289-0.6669769c0.2394447-0.0598602,0.4873962-0.1197214,0.7439041-0.1710234
		c0.2394447-0.0598087,0.4873962-0.1111107,0.7439575-0.1624651c0.63274-0.1367874,1.3082237-0.2565088,2.0179443-0.367672
		L46.6130562,18.263382z M32.4018555,19.4946785h-0.7952042c0.1539059-0.248003,0.2907448-0.4959526,0.4019089-0.7439041
		C32.1111641,18.9987259,32.2479515,19.2466755,32.4018555,19.4946785z M18.2163334,20.7772789h0.8721313h3.7195702h0.9576702
		h1.2227402h1.4193859h0.778141h0.7267857h0.4275322h1.2740402h0.9833488h2.8131485h0.9833488h1.2484169h0.4531555h0.7268372
		h0.7780876h1.410881h1.2227402h0.9662285h3.7109604h0.8807411h0.8293915h0.4788361L35.4886322,45.1552315h-2.6763077
		l2.5822639-10.4660034l-1.2483635-0.3078651l-2.3856678,9.6879196l-2.3941765-9.6879196l-1.2398567,0.3078651l2.5823174,10.4660034
		h-2.676363L16.4121017,20.7772789h0.9662304H18.2163334z M38.1136932,60.7173996H25.398859l2.8046436-14.2795677h2.9136658
		v6.6467018h1.2826004v-6.6467018h2.9093361L38.1136932,60.7173996z"/>
</g>
<g id="Layer_2">
</g>
<g id="Layer_3">
</g>
</svg>
