<?xml version="1.0"?>
<svg xmlns="http://www.w3.org/2000/svg" xmlns:xlink="http://www.w3.org/1999/xlink" xmlns:svgjs="http://svgjs.com/svgjs" version="1.1" width="512" height="512" x="0" y="0" viewBox="0 0 56.015 56.015" style="enable-background:new 0 0 512 512" xml:space="preserve" class=""><g><script/>
<g xmlns="http://www.w3.org/2000/svg">
	<path d="M54.284,10.76c-1.017-1.433-2.727-2.228-4.871-2.319c0.297-4.039-1.053-7.178-3.59-8.146   c-2.043-0.78-4.485,0.008-6.682,2.093C38.145,1.503,37,0.997,35.774,0.997c-3.925,0-7,5.051-7,11.5   c0,4.787,1.73,8.886,4.292,10.612c-2.195,2.244-2.707,7.291-2.81,14.039c-1.188-1.844-2.75-3.234-4.795-3.82   c1.391-2.365,1.901-5.933,1.216-9.744c-1.142-6.348-5.061-10.767-8.924-10.081c-1.208,0.217-2.245,0.918-3.069,1.966   c-2.53-1.663-5.074-2.008-6.947-0.878c-2.32,1.399-3.08,4.722-2.082,8.635c-2.038,0.458-3.623,1.524-4.394,3.162   c-1.79,3.806,1.577,9.031,7.665,11.896c2.407,1.133,4.926,1.733,7.216,1.733c0.392,0,0.776-0.018,1.152-0.053   c2.769-0.261,4.787-1.453,5.684-3.357c0.158-0.336,0.262-0.686,0.341-1.041c0.246-0.144,0.481-0.308,0.705-0.495   c7.364,0.969,7.955,15.412,7.955,19.946c0,0.552,0.447,1,1,1s1-0.448,1-1c0-3.359-0.273-8.979-1.81-13.698   c0.031-0.097,0.061-0.195,0.061-0.302c0-6.161,0.008-14.383,2.354-16.581c0.047,0.074,0.084,0.153,0.135,0.225   c1.082,1.523,2.937,2.337,5.278,2.337c0.296,0,0.599-0.013,0.909-0.039c2.581-0.217,5.399-1.33,7.938-3.134s4.519-4.1,5.573-6.465   C55.55,14.819,55.503,12.476,54.284,10.76z M18.107,15.471c2.679-0.48,5.689,3.398,6.602,8.465   c0.665,3.696,0.043,7.262-1.428,9.062c-0.004-0.016-0.012-0.033-0.016-0.049c-0.179-0.734-0.488-1.476-0.912-2.209   c-0.022-0.039-0.044-0.077-0.067-0.115c-0.436-0.733-0.987-1.453-1.643-2.145c-0.029-0.03-0.059-0.06-0.088-0.09   c-0.317-0.329-0.655-0.651-1.019-0.964c-0.018-0.015-0.034-0.031-0.052-0.046c-0.379-0.324-0.781-0.637-1.206-0.939   c-0.047-0.034-0.097-0.065-0.145-0.098c-0.289-0.201-0.587-0.398-0.896-0.587c-0.001-0.001-0.002-0.002-0.004-0.003   c-0.001,0-0.002,0-0.003-0.002c-0.07-0.043-0.145-0.084-0.217-0.126c-0.106-0.063-0.211-0.126-0.318-0.188   c-0.131-0.075-0.26-0.15-0.395-0.223c-0.003-0.002-0.005-0.005-0.009-0.006c-0.319-0.172-0.646-0.339-0.98-0.497c0,0,0,0-0.001,0   c-0.203-0.095-0.407-0.186-0.611-0.273c-0.012-0.116-0.027-0.232-0.036-0.348c-0.008-0.102-0.017-0.204-0.024-0.305   c-0.019-0.291-0.03-0.58-0.033-0.866c0-0.035-0.003-0.07-0.003-0.105c-0.001-0.333,0.009-0.661,0.029-0.984   c0.003-0.052,0.009-0.102,0.012-0.153c0.019-0.269,0.046-0.535,0.079-0.794c0.008-0.065,0.017-0.129,0.026-0.193   c0.041-0.286,0.09-0.568,0.149-0.839c0.002-0.011,0.004-0.022,0.006-0.033c0.203-0.924,0.506-1.756,0.902-2.448   c0.007-0.012,0.007-0.026,0.014-0.038C16.413,16.31,17.192,15.635,18.107,15.471z M8.77,16.303   c1.191-0.717,3.021-0.376,4.895,0.878c0,0.001,0,0.001,0,0.001c-0.196,0.438-0.365,0.908-0.508,1.403   c-0.006,0.021-0.012,0.042-0.018,0.064c-0.14,0.492-0.256,1.007-0.341,1.548l0,0.001c-0.165,1.039-0.223,2.161-0.169,3.336   c0.002,0.051-0.002,0.099,0,0.15c-0.011-0.003-0.023-0.006-0.034-0.009c-1.736-0.52-3.424-0.755-4.955-0.701   C6.785,19.87,7.211,17.242,8.77,16.303z M17.107,37.971c-2.224,0.209-4.83-0.323-7.329-1.499c-4.904-2.308-7.976-6.537-6.706-9.234   c0.6-1.278,2.091-2.017,4.009-2.203c0.432-0.043,0.882-0.056,1.346-0.042c0.073,0.002,0.146,0.007,0.22,0.01   c0.448,0.022,0.907,0.066,1.374,0.138c0.078,0.012,0.158,0.029,0.236,0.042c0.484,0.083,0.972,0.186,1.465,0.322   c0.029,0.008,0.059,0.019,0.088,0.027c0.508,0.143,1.018,0.313,1.524,0.51c0.034,0.013,0.067,0.024,0.101,0.037   c0.342,0.135,0.684,0.28,1.026,0.44c0.29,0.137,0.573,0.282,0.849,0.431c0.109,0.059,0.215,0.122,0.322,0.183   c0.153,0.087,0.305,0.173,0.454,0.263c0.139,0.085,0.274,0.173,0.409,0.261c0.11,0.071,0.219,0.142,0.326,0.215   c0.15,0.103,0.298,0.208,0.442,0.315c0.081,0.06,0.161,0.12,0.24,0.18c0.155,0.119,0.308,0.239,0.456,0.362   c0.058,0.048,0.114,0.097,0.171,0.145c0.159,0.135,0.315,0.272,0.464,0.411c0.032,0.03,0.062,0.06,0.094,0.09   c0.432,0.41,0.818,0.833,1.159,1.262c0.1,0.126,0.201,0.252,0.292,0.379c0.101,0.14,0.196,0.28,0.287,0.421   c0.02,0.031,0.043,0.062,0.062,0.093c0.083,0.133,0.156,0.266,0.23,0.4c0.037,0.068,0.077,0.137,0.112,0.205   c0.061,0.119,0.114,0.237,0.166,0.356c0.036,0.082,0.072,0.163,0.104,0.244c0.043,0.111,0.081,0.221,0.117,0.331   c0.028,0.088,0.054,0.175,0.077,0.261c0.028,0.104,0.053,0.208,0.073,0.311c0.018,0.091,0.031,0.181,0.043,0.27   c0.013,0.097,0.025,0.195,0.031,0.291c0.006,0.096,0.004,0.189,0.002,0.283c-0.001,0.086-0.001,0.173-0.008,0.258   c-0.033,0.355-0.118,0.696-0.268,1.015C20.585,36.992,19.143,37.78,17.107,37.971z M45.11,2.164   c1.703,0.651,2.588,3.169,2.293,6.382c-0.018,0.003-0.037,0.008-0.056,0.011c-1.149,0.169-2.331,0.507-3.509,0.996   c-0.02,0.008-0.04,0.017-0.06,0.026c-0.353,0.148-0.705,0.31-1.055,0.485c-0.035,0.017-0.07,0.03-0.104,0.048   c-0.006-0.046-0.018-0.088-0.024-0.134c-0.235-1.78-0.711-3.387-1.371-4.736c-0.009-0.018-0.017-0.036-0.026-0.053   c-0.23-0.463-0.479-0.896-0.75-1.293c0,0-0.001-0.001-0.001-0.001C42.084,2.304,43.788,1.66,45.11,2.164z M30.774,12.497   c0-5.149,2.29-9.5,5-9.5c0.929,0,1.816,0.526,2.578,1.427c0.008,0.011,0.011,0.024,0.02,0.035c0.512,0.609,0.956,1.373,1.318,2.244   c0.008,0.018,0.014,0.037,0.022,0.055c0.102,0.249,0.196,0.508,0.285,0.773c0.022,0.067,0.044,0.134,0.065,0.202   c0.077,0.242,0.147,0.491,0.212,0.744c0.015,0.057,0.031,0.112,0.045,0.17c0.075,0.311,0.143,0.628,0.2,0.952   c0.008,0.043,0.013,0.089,0.02,0.132c0.046,0.272,0.084,0.549,0.116,0.828c0.012,0.106,0.022,0.213,0.032,0.321   c0.011,0.112,0.016,0.226,0.025,0.339c-0.185,0.121-0.369,0.247-0.553,0.377c-0.154,0.109-0.299,0.226-0.448,0.338   c-0.143,0.108-0.291,0.214-0.43,0.324c0,0,0,0.001,0,0.001c-0.11,0.088-0.213,0.179-0.32,0.268   c-0.109,0.091-0.216,0.182-0.322,0.275c-0.321,0.28-0.632,0.566-0.927,0.861c-0.067,0.067-0.136,0.133-0.202,0.201   c-0.297,0.306-0.575,0.62-0.842,0.938c-0.112,0.133-0.218,0.267-0.324,0.402c-0.149,0.19-0.291,0.382-0.429,0.575   c-0.018,0.025-0.037,0.05-0.055,0.075c-0.022,0.031-0.043,0.063-0.065,0.094c-0.081,0.117-0.168,0.233-0.245,0.351   c-0.146,0.225-0.278,0.453-0.407,0.681c-0.008,0.014-0.017,0.028-0.025,0.042c-0.048,0.086-0.097,0.171-0.143,0.257   c-0.079,0.147-0.149,0.293-0.221,0.44c-0.018,0.038-0.041,0.076-0.059,0.114c-0.003,0.005-0.001,0.011-0.003,0.017   c-0.033,0.071-0.073,0.141-0.105,0.211c-0.049,0.111-0.084,0.219-0.129,0.329c-0.066,0.162-0.134,0.324-0.19,0.486   c-0.125,0.355-0.232,0.707-0.309,1.051c-0.01,0.044-0.013,0.087-0.022,0.131c-0.07,0.336-0.112,0.665-0.136,0.988   c-0.003,0.038-0.014,0.078-0.016,0.115C32.016,19.651,30.774,16.252,30.774,12.497z M52.591,16.545   c-0.911,2.043-2.652,4.049-4.904,5.648c-2.251,1.6-4.719,2.584-6.948,2.771c-2.04,0.172-3.597-0.348-4.389-1.463   c-0.194-0.273-0.337-0.578-0.434-0.909c-0.027-0.094-0.043-0.192-0.062-0.289c-0.015-0.075-0.034-0.147-0.045-0.224   c-0.014-0.103-0.017-0.21-0.023-0.316c-0.004-0.078-0.012-0.153-0.012-0.233c0-0.108,0.01-0.22,0.018-0.331   c0.006-0.082,0.009-0.163,0.019-0.247c0.014-0.115,0.036-0.233,0.057-0.35c0.015-0.083,0.029-0.166,0.048-0.25   c0.028-0.125,0.064-0.253,0.1-0.38c0.022-0.078,0.044-0.155,0.07-0.234c0.046-0.142,0.098-0.286,0.154-0.43   c0.023-0.059,0.046-0.118,0.071-0.178c0.065-0.156,0.134-0.313,0.21-0.47c0.067-0.142,0.146-0.286,0.222-0.429   c0.381-0.707,0.861-1.42,1.437-2.113c0.012-0.015,0.024-0.03,0.036-0.045c0.153-0.182,0.313-0.363,0.477-0.541   c0.03-0.032,0.06-0.065,0.09-0.098c0.154-0.164,0.313-0.326,0.476-0.486c0.055-0.053,0.11-0.107,0.166-0.16   c0.146-0.139,0.295-0.278,0.448-0.414c0.109-0.095,0.22-0.19,0.332-0.283c0.117-0.099,0.233-0.199,0.354-0.295   c0.164-0.131,0.336-0.257,0.508-0.384c0.083-0.061,0.162-0.126,0.247-0.186c0.317-0.225,0.637-0.434,0.958-0.632   c0.052-0.032,0.105-0.061,0.157-0.092c1.202-0.723,2.452-1.278,3.668-1.629c0.023-0.007,0.045-0.013,0.068-0.019   c0.229-0.065,0.457-0.122,0.683-0.172c0.043-0.01,0.086-0.018,0.128-0.027c0.212-0.045,0.423-0.085,0.631-0.116   c0.052-0.008,0.103-0.013,0.154-0.019c0.205-0.028,0.41-0.053,0.61-0.067c0.001,0,0.003-0.001,0.004-0.001   c0.214-0.015,0.425-0.027,0.628-0.027c1.675,0,2.954,0.521,3.647,1.496C53.446,13.034,53.424,14.677,52.591,16.545z" fill="#c0a05b" data-original="#000000" style="" class=""/>
	<path d="M43.018,41.514c3.7-2.581,6.142-6.948,6.151-11.896c0.001-0.407-0.245-0.773-0.621-0.928   c-0.193-0.078-0.4-0.092-0.597-0.05c-3.653,0.046-7.079,1.534-9.665,4.204c-2.596,2.679-4.035,6.235-4.072,10.024   c-0.001,0.006-0.004,0.012-0.004,0.018c-0.001,0.008,0.002,0.016,0.002,0.024c0,0.028-0.004,0.054-0.004,0.082   c0,0.054,0.016,0.104,0.024,0.156c0.004,0.022,0.005,0.045,0.01,0.067c0.031,0.128,0.082,0.247,0.16,0.351   c1.975,4.643,6.579,7.445,11.491,7.445c1.621,0,3.275-0.305,4.879-0.949c0.378-0.152,0.626-0.518,0.627-0.925   c0.001-0.204-0.062-0.398-0.17-0.561C49.745,45.043,46.691,42.484,43.018,41.514z M39.722,34.235   c2.009-2.074,4.606-3.314,7.4-3.554c-0.404,4.794-3.453,8.807-7.615,10.466c-0.007,0.003-0.015,0.001-0.022,0.004   c-0.981,0.388-1.989,0.633-3.008,0.745c-0.058,0.006-0.114,0.018-0.172,0.023c-0.018,0.002-0.035,0.001-0.053,0.003   C36.496,39.013,37.706,36.316,39.722,34.235z M36.783,43.882c0.538-0.061,1.065-0.163,1.583-0.286   c0.063-0.015,0.125-0.035,0.188-0.051c0.467-0.118,0.924-0.261,1.371-0.427c0.035-0.013,0.071-0.02,0.107-0.033   c3.851,0.106,7.26,2.209,8.979,5.473C44.237,49.966,39.166,48.002,36.783,43.882z" fill="#c0a05b" data-original="#000000" style="" class=""/>
</g>
<g xmlns="http://www.w3.org/2000/svg">
</g>
<g xmlns="http://www.w3.org/2000/svg">
</g>
<g xmlns="http://www.w3.org/2000/svg">
</g>
<g xmlns="http://www.w3.org/2000/svg">
</g>
<g xmlns="http://www.w3.org/2000/svg">
</g>
<g xmlns="http://www.w3.org/2000/svg">
</g>
<g xmlns="http://www.w3.org/2000/svg">
</g>
<g xmlns="http://www.w3.org/2000/svg">
</g>
<g xmlns="http://www.w3.org/2000/svg">
</g>
<g xmlns="http://www.w3.org/2000/svg">
</g>
<g xmlns="http://www.w3.org/2000/svg">
</g>
<g xmlns="http://www.w3.org/2000/svg">
</g>
<g xmlns="http://www.w3.org/2000/svg">
</g>
<g xmlns="http://www.w3.org/2000/svg">
</g>
<g xmlns="http://www.w3.org/2000/svg">
</g>
</g></svg>
