<?xml version="1.0"?>
<svg xmlns="http://www.w3.org/2000/svg" xmlns:xlink="http://www.w3.org/1999/xlink" xmlns:svgjs="http://svgjs.com/svgjs" version="1.1" width="512" height="512" x="0" y="0" viewBox="0 0 512 512" style="enable-background:new 0 0 512 512" xml:space="preserve" class=""><g><script/><g xmlns="http://www.w3.org/2000/svg" id="Out_line" data-name="Out line"><path d="M493.65723,266.34326l-15.59961-15.59961a95.70494,95.70494,0,0,0-47.12354-25.84,121.55819,121.55819,0,0,0-7.25659-14.755A56.04523,56.04523,0,0,0,411.7937,181.252,55.9653,55.9653,0,0,0,360,104a55.57047,55.57047,0,0,0-24.89038,5.90894A96.16988,96.16988,0,0,0,314.26855,44.0293L294.24707,19.00244a8.00025,8.00025,0,0,0-12.49414,0L261.73145,44.0293a96.35522,96.35522,0,0,0-15.63282,28.07519,122.89083,122.89083,0,0,0-18.324.635A95.75492,95.75492,0,0,0,187.67773,64H168a8.00008,8.00008,0,0,0-8,8V94.06152q0,4.40955.41187,8.77051a121.7736,121.7736,0,0,0-37.33765,63.07568l.4602.10572a55.88545,55.88545,0,0,0-8.51587,52.12085L89.11719,352.085a7.97784,7.97784,0,0,0-8.87793,5.97461l-6.93555,27.73975-19.834,6.61132a8.00012,8.00012,0,0,0-3.127,13.2461l2.81836,2.81836-13.60742,6.80371a42.61,42.61,0,1,0,57.168,57.167l6.80322-13.60705,2.81787,2.818a8.00044,8.00044,0,0,0,13.24707-3.127l6.61133-19.834,27.73926-6.93457a7.98128,7.98128,0,0,0,5.97534-8.87842L319.68115,391.99a120.34724,120.34724,0,0,0,46.33643-9.51245l-.05322-.12573a95.94692,95.94692,0,0,0,38.38623,12.85376l31.85351,3.53955a8,8,0,0,0,8.835-8.83448L441.5,358.05664a95.63814,95.63814,0,0,0-13.6521-39.72412c.33643-.05664.67334-.0979,1.00952-.1582a95.501,95.501,0,0,0,50.88574-26.603l13.91407-13.91455A8,8,0,0,0,493.65723,266.34326ZM296.179,152.67383a55.96344,55.96344,0,0,0,23.17944,92.80188A48.10894,48.10894,0,0,1,304,248c-1.186,0-2.37646-.05884-3.56128-.14526a55.75994,55.75994,0,0,0-22.46631-7.51819,48.13329,48.13329,0,0,1-5.61572-4.24866,55.67726,55.67726,0,0,0-6.491-65.22436A48.28472,48.28472,0,0,1,296.179,152.67383ZM312,344a24.00637,24.00637,0,0,1-8.00635-1.374,23.97879,23.97879,0,0,0,7.94336-40.54981,31.89047,31.89047,0,0,0-.94336-6.052C311.32812,296.0105,311.66309,296,312,296a24,24,0,0,1,0,48ZM152,232c0-.92163.03931-1.83813.10132-2.751a31.97451,31.97451,0,0,0,19.07641,10.38721,39.97476,39.97476,0,0,0,46.22852,23.23608A39.9794,39.9794,0,0,1,152,232Zm56-32a24,24,0,1,1-8.00635,46.626,23.97879,23.97879,0,0,0,7.94336-40.54981,31.89047,31.89047,0,0,0-.94336-6.052C207.32812,200.0105,207.66309,200,208,200Zm-16,16a8,8,0,1,1-8,8A8.00917,8.00917,0,0,1,192,216Zm-23.9021,5.89453a15.98866,15.98866,0,1,1,21.79663-21.79663A24.03213,24.03213,0,0,0,168.0979,221.89453Zm80.42017,76.40906a55.61344,55.61344,0,0,0-8.02784,22.33081,39.994,39.994,0,1,1,68.22071-40.49121,39.73145,39.73145,0,0,0-6.324,1.02087,31.97029,31.97029,0,0,0-53.86889,17.13953ZM296,328a8,8,0,1,1,8-8A8.00917,8.00917,0,0,1,296,328Zm-16-40a16.00011,16.00011,0,0,1,13.89453,8.0979,24.03213,24.03213,0,0,0-21.79663,21.79663A15.98866,15.98866,0,0,1,280,288Zm56-56a39.9794,39.9794,0,0,1-30.87231-65.40625,39.97414,39.97414,0,0,0,23.23608,46.228,31.97311,31.97311,0,0,0,10.38721,19.0769C337.83813,231.96069,336.92163,232,336,232Zm8-32a8,8,0,1,1,8-8A8.00917,8.00917,0,0,1,344,200Zm16,24a16.00011,16.00011,0,0,1-13.89453-8.0979,24.03213,24.03213,0,0,0,21.79663-21.79663A15.98866,15.98866,0,0,1,360,224Zm7.97583-46.99365a31.88231,31.88231,0,0,0-6.052-.94324,23.9787,23.9787,0,0,0-40.54981,7.94324A24.00034,24.00034,0,1,1,368,176C368,176.33667,367.9895,176.67188,367.97583,177.00635ZM264,208a40.22249,40.22249,0,0,1-16.63525,32.42871A56.1891,56.1891,0,0,0,248,232c0-1.43872-.06763-2.88269-.17676-4.31152C247.93506,226.4729,248,225.24414,248,224a40.05807,40.05807,0,0,0-25.59546-37.30591,55.34279,55.34279,0,0,0-7.76392-17.57739A39.97657,39.97657,0,0,1,264,208Zm-59.28906-23.85681a39.73145,39.73145,0,0,0-6.324,1.02087,31.97029,31.97029,0,0,0-53.86889,17.13953,55.61344,55.61344,0,0,0-8.02784,22.33081,39.994,39.994,0,1,1,68.22071-40.49121ZM192,288a55.63639,55.63639,0,0,0,25.87451-6.36035,55.98927,55.98927,0,0,0,5.8877,42.80835l-36.67676-36.67639C188.7063,287.91333,190.34277,288,192,288Zm41.20605,68.51953a120.79652,120.79652,0,0,0,42.644,27.64954L148.17139,408.85742,119.314,380,188,311.314ZM296,368a40.04552,40.04552,0,0,1-40-40c0-.92163.03931-1.83813.10132-2.751a31.97451,31.97451,0,0,0,19.07641,10.38721,39.97476,39.97476,0,0,0,46.22852,23.23608A39.81511,39.81511,0,0,1,296,368Zm55.82324-44.31152C351.93506,322.4729,352,321.24414,352,320a40.05807,40.05807,0,0,0-25.59546-37.30591,55.34279,55.34279,0,0,0-7.76392-17.57739,39.97512,39.97512,0,0,1,32.72413,71.312A56.1891,56.1891,0,0,0,352,328C352,326.56128,351.93237,325.11731,351.82324,323.68848ZM368,256a39.97638,39.97638,0,0,1-24.63428-8.49011,55.59987,55.59987,0,0,0,22.33032-8.02771,31.97044,31.97044,0,0,0,17.13965-53.86939,39.70687,39.70687,0,0,0,1.021-6.32373A39.99283,39.99283,0,0,1,368,256Zm32-96a40.18746,40.18746,0,0,1-1.1167,9.35913,55.344,55.344,0,0,0-17.57739-7.76367A40.058,40.058,0,0,0,344,136c-1.24487,0-2.47437.06506-3.69067.17688-1.4314-.109-2.875-.17688-4.30933-.17688a56.1903,56.1903,0,0,0-8.42871.63525A39.97486,39.97486,0,0,1,400,160ZM274.22559,54.02441,288,36.80615l13.77441,17.21826a80.14284,80.14284,0,0,1,14.79908,70.69764,55.85109,55.85109,0,0,0-7.26587,11.50817C307.54321,136.085,305.77148,136,304,136a63.4215,63.4215,0,0,0-8,.51245V80H280v60.7085a64.53235,64.53235,0,0,0-11.06836,5.801A79.7345,79.7345,0,0,1,274.22559,54.02441ZM176,80h11.67773a79.60138,79.60138,0,0,1,53.033,20.11816,95.56909,95.56909,0,0,0,7.21363,40.49207l-35.80616-35.806-11.31445,11.31348,37.83667,37.83667a55.80665,55.80665,0,0,0-33.94214,1.49023A80.4527,80.4527,0,0,1,176,94.06152Zm-11.91333,41.637a96.96994,96.96994,0,0,0,10.21484,22.7378,55.29635,55.29635,0,0,0-28.35766,4.15942A106.2381,106.2381,0,0,1,164.08667,121.637ZM129.87061,241.0116A120.48387,120.48387,0,0,0,155.47949,278.794L176.686,300.00012,108,368.686l-4.85742-4.85743,24.22705-125.292Q128.57812,239.811,129.87061,241.0116ZM46.71,429.58936l18.377-9.18848.27417.27417L35.81543,467.104A26.59243,26.59243,0,0,1,46.71,429.58936ZM82.41113,465.29a26.59131,26.59131,0,0,1-34.42529,12.49023l28.9646-45.51587,14.64868,14.64869Zm35.64844-41.05127a8.002,8.002,0,0,0-5.64941,5.23144l-3.90625,11.71973L70.80957,403.49609l11.7207-3.90673a7.99818,7.99818,0,0,0,5.23047-5.64893L92.334,375.648,136.35254,419.666ZM325.126,375.81067a56.437,56.437,0,0,0,15.98535-14.67883,96.07607,96.07607,0,0,0,9.57129,9.96545A104.2686,104.2686,0,0,1,325.126,375.81067Zm80.99218,3.49255a79.97975,79.97975,0,0,1-50.94995-26.35986A56.46171,56.46171,0,0,0,372.647,337.66663l19.186,19.18591,11.31445-11.31348-22.521-22.52087a55.63684,55.63684,0,0,0,2.21387-7.80676,95.29844,95.29844,0,0,0,26.48926,4.46045,79.65858,79.65858,0,0,1,16.26807,40.15136l2.43457,21.915Zm62.31055-99.04541a80.46915,80.46915,0,0,1-84.6958,18.32007A55.55849,55.55849,0,0,0,378.58569,280H432V264H396.80981A56.35745,56.35745,0,0,0,418.979,239.13147a79.73391,79.73391,0,0,1,47.76416,22.92566L476.68652,272Z" fill="#846b36" data-original="#000000" style="" class=""/></g></g></svg>
