<?xml version="1.0" encoding="utf-8"?>
<!-- Generator: Adobe Illustrator 24.0.1, SVG Export Plug-In . SVG Version: 6.00 Build 0)  -->
<svg version="1.1" xmlns="http://www.w3.org/2000/svg" xmlns:xlink="http://www.w3.org/1999/xlink" x="0px" y="0px" width="64px"
	 height="64px" viewBox="0 0 64 64" style="enable-background:new 0 0 64 64;" xml:space="preserve">
<style type="text/css">
	.st0{fill:none;stroke:#000000;stroke-width:1.5;stroke-miterlimit:10;}
	.st1{fill:#FFFFFF;stroke:#000000;stroke-width:0.989177;stroke-miterlimit:10;}
	.st2{fill:none;stroke:#000000;stroke-width:0.989177;stroke-miterlimit:10;}
	.st3{fill:none;stroke:#000000;stroke-width:0.6279578;stroke-miterlimit:10;}
	.st4{display:none;}
	.st5{display:inline;}
</style>
<g id="Layer_1">
	<g>
		<path d="M46.603653,24.0755577H18.1321354H17.396347h-0.8310528v0.0173302
			C8.4800749,24.5343819,2.048239,31.2345715,2.048239,39.4236641V62h59.9035187V39.4236641
			C61.9517593,30.9575005,55.0698204,24.0755577,46.603653,24.0755577z M17.396347,25.3740463h0.7357883
			c7.2888813,0,13.2186203,5.929739,13.2186203,13.2186203v0.1817551H3.3640566
			C3.7016232,31.3211155,9.8651075,25.3740463,17.396347,25.3740463z M21.5341663,40.0729103v20.6286011h-8.370903V40.0729103
			H21.5341663z M22.832653,40.0729103h8.5181026v20.6286011H22.832653V40.0729103z M3.3467267,40.0729103h8.5180492v20.6286011
			H3.3467267V40.0729103z M32.6492424,60.7015114V38.5926666c0-5.8778534-3.5059052-10.9420395-8.5353775-13.2186203H46.603653
			c7.5312386,0,13.694725,5.9470692,14.0323448,13.4003754H36.336956v1.2984886h24.3163185v20.6286011H32.6492424z"/>
		<path d="M26.728117,16.2499714c0.0003166,0.0004234,0.0007401,0.0008469,0.0010567,0.0012684L24.471138,18.509222
			l0.9180717,0.9180717l2.2583523-2.2584057c1.0125942,0.8389244,2.275629,1.3838711,3.6599216,1.5136356
			c0.0006332,0,0.001215,0,0.0018501,0.0001049v3.1970825h1.2984886v-3.197504
			c1.3842926-0.1302929,2.6475372-0.6753464,3.6598663-1.5145855c0.0001068-0.0001068,0.0002136-0.0002117,0.0003166-0.0002117
			l2.2599373,2.2598839l0.9180717-0.9180717l-2.2600937-2.2600956c0.839241-1.0123301,1.3842926-2.275629,1.5141106-3.6600275
			h3.1984024v-1.2984877h-3.1981926c-0.0000534-0.0002108,0-0.0006332-0.0000534-0.000845
			c-0.1297646-1.3842926-0.6746559-2.6473808-1.5135803-3.6598163l2.259407-2.2594614l-0.9180717-0.9180713l-2.259037,2.2590384
			c-0.0004234-0.0003166-0.0007935-0.0007396-0.0012169-0.0010567c-1.0123291-0.8392406-2.2755737-1.3842926-3.6598663-1.514585V2
			h-1.2984886v3.1953912C31.3086987,5.195497,31.3081169,5.195497,31.3074837,5.195497
			c-1.384716,0.1297641-2.6482258,0.674922-3.6609249,1.5142684l-2.257349-2.2573481L24.471138,5.3704886l2.2572422,2.2572422
			c-0.0001049,0.0001059-0.0001583,0.0002112-0.0002632,0.0003171c-0.8396626,1.0127525-1.3850327,2.2765799-1.5149021,3.6617184
			c-0.0000534,0.0002117,0,0.0006342-0.0000534,0.000845h-3.1940174v1.2984877h3.1942291
			C25.3432961,13.973815,25.8886127,15.2374306,26.728117,16.2499714z M31.956728,6.4593244
			c3.0211391,0,5.4796314,2.4585462,5.4796314,5.4796853s-2.4584923,5.4795809-5.4796314,5.4795809
			s-5.4796333-2.4584408-5.4796333-5.4795809S28.9355888,6.4593244,31.956728,6.4593244z"/>
	</g>
</g>
<g id="Layer_2">
</g>
<g id="Layer_3">
</g>
</svg>
