<?xml version="1.0" encoding="utf-8"?>
<!-- Generator: Adobe Illustrator 24.0.1, SVG Export Plug-In . SVG Version: 6.00 Build 0)  -->
<svg version="1.1" xmlns="http://www.w3.org/2000/svg" xmlns:xlink="http://www.w3.org/1999/xlink" x="0px" y="0px" width="64px"
	 height="64px" viewBox="0 0 64 64" style="enable-background:new 0 0 64 64;" xml:space="preserve">
<style type="text/css">
	.st0{fill:none;stroke:#000000;stroke-width:1.5;stroke-miterlimit:10;}
	.st1{fill:#FFFFFF;stroke:#000000;stroke-width:0.989177;stroke-miterlimit:10;}
	.st2{fill:none;stroke:#000000;stroke-width:0.989177;stroke-miterlimit:10;}
	.st3{fill:none;stroke:#000000;stroke-width:0.6279578;stroke-miterlimit:10;}
	.st4{display:none;}
	.st5{display:inline;}
</style>
<g id="Layer_1">
	<g>
		<path d="M51.3886452,42.2659798c-2.7780609,0-5.0384827,2.2604218-5.0384827,5.0389099
			c0,2.7776299,2.2604218,5.0380554,5.0384827,5.0380554c2.7780571,0,5.0380516-2.2604256,5.0380516-5.0380554
			C56.4266968,44.5264015,54.1667023,42.2659798,51.3886452,42.2659798z M51.3886452,51.0232887
			c-2.0503616,0-3.7188301-1.6684685-3.7188301-3.718399c0-2.0507889,1.6684685-3.7192574,3.7188301-3.7192574
			c2.0503578,0,3.718399,1.6684685,3.718399,3.7192574C55.1070442,49.3548203,53.439003,51.0232887,51.3886452,51.0232887z"/>
		<path d="M20.8372841,42.2659798c-2.7780609,0-5.0384827,2.2604218-5.0384827,5.0389099
			c0,2.7776299,2.2604218,5.0380554,5.0384827,5.0380554s5.0380535-2.2604256,5.0380535-5.0380554
			C25.8753376,44.5264015,23.615345,42.2659798,20.8372841,42.2659798z M20.8372841,51.0232887
			c-2.0503597,0-3.7188282-1.6684685-3.7188282-3.718399c0-2.0507889,1.6684685-3.7192574,3.7188282-3.7192574
			s3.718399,1.6684685,3.718399,3.7192574C24.5556831,49.3548203,22.8876438,51.0232887,20.8372841,51.0232887z"/>
		<polygon points="52.2074127,17.0997696 41.3099594,17.0997696 41.3099594,11.6570559 8.0930891,11.6570559 8.0930891,22.0029354 
			9.4127426,22.0029354 9.4127426,12.9767103 39.9903069,12.9767103 39.9903069,43.7377014 28.3393784,43.7377014 
			28.3393784,45.057354 44.3702507,45.057354 44.3702507,43.7377014 41.3099594,43.7377014 41.3099594,18.4194221 
			51.736599,18.4194221 60.6803474,25.7325039 60.6803474,43.7377014 58.2936287,43.7377014 58.2936287,45.057354 62,45.057354 
			62,25.1070423 		"/>
		<rect x="7.0393419" y="24.2882729" width="16.9724998" height="1.3196537"/>
		<rect x="4.5198855" y="30.0119286" width="16.9724998" height="1.3196537"/>
		<rect x="2" y="35.7355843" width="16.972929" height="1.3196537"/>
		<polygon points="9.4127426,39.2134209 8.0930891,39.2134209 8.0930891,45.057354 13.8859053,45.057354 13.8859053,43.7377014 
			9.4127426,43.7377014 		"/>
		<path d="M45.0988083,23.2753353v11.4369984h11.3278885v-7.4067268l-4.0504608-4.05089L45.0988083,23.2753353z
			 M55.1070442,33.3926811h-8.6885796v-8.8011284l5.4130707-0.0154648l3.2755089,3.275938V33.3926811z"/>
	</g>
</g>
<g id="Layer_2">
</g>
<g id="Layer_3">
</g>
</svg>
