<?xml version="1.0" encoding="utf-8"?>
<!-- Generator: Adobe Illustrator 24.0.1, SVG Export Plug-In . SVG Version: 6.00 Build 0)  -->
<svg version="1.1" xmlns="http://www.w3.org/2000/svg" xmlns:xlink="http://www.w3.org/1999/xlink" x="0px" y="0px" width="64px"
	 height="64px" viewBox="0 0 64 64" style="enable-background:new 0 0 64 64;" xml:space="preserve">
<style type="text/css">
	.st0{fill:none;stroke:#000000;stroke-width:1.5;stroke-miterlimit:10;}
	.st1{fill:#FFFFFF;stroke:#000000;stroke-width:0.989177;stroke-miterlimit:10;}
	.st2{fill:none;stroke:#000000;stroke-width:0.989177;stroke-miterlimit:10;}
	.st3{fill:none;stroke:#000000;stroke-width:0.6279578;stroke-miterlimit:10;}
	.st4{display:none;}
	.st5{display:inline;}
</style>
<g id="Layer_1">
	<path d="M32.0002213,12.4242296l-6.3663883,12.8850641l-14.2173061,2.0649548l10.2870846,10.0301857l-2.4266949,14.1602097
		l12.7233047-6.680439l12.7137184,6.6899643l-2.4266357-14.169735l10.2870827-10.0301857l-14.217308-2.0649548
		L32.0002213,12.4242296z M40.7551384,36.9095688l2.0650749,12.0476265l-10.8199921-5.6907082L21.170702,48.9571953
		l2.0650139-12.0476265l-8.7549782-8.5360641l12.104723-1.7604866l5.4147606-10.96276l5.4052315,10.96276l12.1046638,1.7604866
		L40.7551384,36.9095688z"/>
	<path d="M32.0002213,2.0039625c-16.5392799,0-29.9952965,13.4559002-29.9952965,29.9952965
		c0,16.5391636,13.4560175,30.0047054,29.9952965,30.0047054c16.5392189,0,29.9952354-13.4655418,29.9952354-30.0047054
		C61.9954567,15.4598627,48.5394402,2.0039625,32.0002213,2.0039625z M32.0002213,60.5765228
		c-15.7589397,0-28.5678577-12.8183861-28.5678577-28.5772648c0-15.7494698,12.808917-28.5678558,28.5678577-28.5678558
		S60.5680161,16.2497883,60.5680161,31.999258C60.5680161,47.7581367,47.7591553,60.5765228,32.0002213,60.5765228z"/>
</g>
<g id="Layer_2">
</g>
<g id="Layer_3">
</g>
</svg>
