<?xml version="1.0"?>
<svg xmlns="http://www.w3.org/2000/svg" xmlns:xlink="http://www.w3.org/1999/xlink" xmlns:svgjs="http://svgjs.com/svgjs" version="1.1" width="512" height="512" x="0" y="0" viewBox="0 0 511.999 511.999" style="enable-background:new 0 0 512 512" xml:space="preserve" class=""><g><script/>
<g xmlns="http://www.w3.org/2000/svg">
	<g>
		<path d="M336.535,139.591l-11.433-29.055c-1.732-4.401-6.703-6.562-11.103-4.832c-4.4,1.732-6.564,6.702-4.832,11.102    l11.433,29.056c9.949,25.28,9.456,52.919-1.385,77.828c-10.842,24.91-30.734,44.106-56.013,54.054    c-25.279,9.948-52.918,9.456-77.829-1.386c-24.909-10.842-44.106-30.733-54.054-56.013c-9.947-25.28-9.455-52.919,1.386-77.829    c10.841-24.91,30.733-44.106,56.013-54.054l94.64-37.241l14.281,36.294c1.733,4.401,6.706,6.565,11.103,4.832    c4.4-1.732,6.564-6.702,4.832-11.102l-17.417-44.262c-0.832-2.113-2.468-3.81-4.55-4.716c-2.085-0.906-4.442-0.949-6.552-0.116    l-16.56,6.516L232.339,2.508C230.734,0.902,228.555,0,226.285,0c-2.271,0-4.449,0.902-6.054,2.508l-35.028,35.028l-18.285-7.072    c-2.118-0.818-4.474-0.763-6.552,0.155c-2.077,0.919-3.703,2.625-4.522,4.742l-38.464,99.476c-0.029,0.066-0.048,0.134-0.075,0.2    c-0.096,0.217-0.204,0.426-0.299,0.644c-12.667,29.104-13.241,61.398-1.619,90.933c18.39,46.733,63.292,75.321,110.716,75.32    c14.447-0.001,29.133-2.655,43.37-8.257c29.536-11.623,52.776-34.051,65.444-63.154    C347.582,201.42,348.158,169.125,336.535,139.591z M226.285,20.67l24.833,24.834l-22.439,8.83l-26.011-10.047L226.285,20.67z     M168.726,49.524l15.332,5.929c0.026,0.011,0.053,0.021,0.079,0.031c0.055,0.023,0.11,0.044,0.166,0.066l20.834,8.047    l-22.688,8.928c-10.516,4.138-20.216,9.669-28.943,16.361L168.726,49.524z" fill="#846b36" data-original="#000000" style="" class=""/>
	</g>
</g>
<g xmlns="http://www.w3.org/2000/svg">
	<g>
		<path d="M402.42,282.509c-1.606-1.606-3.783-2.508-6.055-2.508c0,0-0.001,0-0.002,0c-2.231,0-4.473,0.042-6.662,0.121    c-18.803,0.691-37.229,4.289-54.767,10.697c-17.017,6.216-32.96,14.974-47.387,26.029c-14.344,10.99-26.916,24.038-37.365,38.778    c-6.016,8.488-11.231,17.456-15.661,26.793v-58.774c0-4.729-3.833-8.562-8.562-8.562s-8.562,3.833-8.562,8.562v22.138    l-1.482-1.482c-3.344-3.345-8.765-3.344-12.108,0c-3.344,3.344-3.344,8.765,0,12.108l13.591,13.59v83.365    c-0.059,1.897-0.098,3.797-0.098,5.701c0,0.281,0.014,0.56,0.041,0.84c0.005,0.048,0.015,0.094,0.021,0.14    c0.01,0.086,0.024,0.17,0.036,0.256v6.573l-1.482-1.482c-3.344-3.344-8.765-3.344-12.108,0c-3.344,3.344-3.344,8.765,0,12.108    L217.4,491.09v12.346c0,4.729,3.833,8.562,8.562,8.562s8.562-3.833,8.562-8.562v-36.023c18.107-0.864,35.851-4.423,52.772-10.603    c17.014-6.215,32.958-14.972,47.387-26.029c14.346-10.994,26.918-24.041,37.365-38.778c10.54-14.87,18.71-31.174,24.28-48.454    c5.702-17.691,8.597-36.19,8.603-54.984C404.93,286.295,404.028,284.115,402.42,282.509z M380.026,338.296    c-5.033,15.621-12.419,30.358-21.952,43.806c-9.451,13.335-20.827,25.14-33.809,35.088c-13.05,9.998-27.466,17.917-42.847,23.536    c-10.793,3.942-21.962,6.689-33.356,8.249l38.086-38.086c3.344-3.344,3.344-8.765,0-12.108c-3.345-3.344-8.765-3.344-12.109,0    l-38.083,38.083c1.282-9.354,3.354-18.561,6.246-27.531c5.037-15.623,12.422-30.362,21.952-43.807    c9.455-13.339,20.831-25.143,33.81-35.088c13.047-9.998,27.464-17.916,42.847-23.536c14.993-5.476,30.708-8.683,46.758-9.544    C386.817,311.337,384.291,325.07,380.026,338.296z" fill="#846b36" data-original="#000000" style="" class=""/>
	</g>
</g>
<g xmlns="http://www.w3.org/2000/svg">
	<g>
		<path d="M361.492,323.439c-3.345-3.344-8.765-3.344-12.109,0l-54.578,54.578c-3.345,3.344-3.345,8.765-0.001,12.108    c1.672,1.671,3.864,2.508,6.055,2.508c2.191,0,4.383-0.836,6.055-2.508l54.578-54.578    C364.835,332.203,364.835,326.782,361.492,323.439z" fill="#846b36" data-original="#000000" style="" class=""/>
	</g>
</g>
<g xmlns="http://www.w3.org/2000/svg">
</g>
<g xmlns="http://www.w3.org/2000/svg">
</g>
<g xmlns="http://www.w3.org/2000/svg">
</g>
<g xmlns="http://www.w3.org/2000/svg">
</g>
<g xmlns="http://www.w3.org/2000/svg">
</g>
<g xmlns="http://www.w3.org/2000/svg">
</g>
<g xmlns="http://www.w3.org/2000/svg">
</g>
<g xmlns="http://www.w3.org/2000/svg">
</g>
<g xmlns="http://www.w3.org/2000/svg">
</g>
<g xmlns="http://www.w3.org/2000/svg">
</g>
<g xmlns="http://www.w3.org/2000/svg">
</g>
<g xmlns="http://www.w3.org/2000/svg">
</g>
<g xmlns="http://www.w3.org/2000/svg">
</g>
<g xmlns="http://www.w3.org/2000/svg">
</g>
<g xmlns="http://www.w3.org/2000/svg">
</g>
</g></svg>
